<svg xmlns="http://www.w3.org/2000/svg" version="1.1" xmlns:xlink="http://www.w3.org/1999/xlink" width="1500" height="358" viewBox="0 0 1500 358"><svg xml:space="preserve" width="1500" height="358" data-version="2" data-id="lg_5KNW2x4BypSSZYSqYq" viewBox="0 0 248 358" x="0" y="0"><rect width="100%" height="100%" fill="transparent"></rect><path fill="#091627" d="M13.95 294.695h7.37v57.61h-7.37Z"></path><rect width="7.37" height="57.61" x="-3.69" y="-28.8" fill="none" rx="0" ry="0" transform="translate(18.14 324)"></rect><path fill="#091627" d="M56.74 294.695q14.21 0 21.47 7.34 7.26 7.33 7.26 21.54 0 14.29-7.22 21.51-7.22 7.22-21.51 7.22H37.59v-57.61zm21.13 28.66q0-11.4-5.32-16.8t-15.81-5.4H44.96v44.69h11.78q10.56 0 15.85-5.39 5.28-5.4 5.28-17.1"></path><rect width="47.88" height="57.61" x="-23.94" y="-28.8" fill="none" rx="0" ry="0" transform="translate(62.03 324)"></rect><path fill="#091627" d="M133.35 345.925v6.38H98.08v-57.61h34.89v6.39h-27.51v19.07h23.71v6.39h-23.71v19.38Z"></path><rect width="35.27" height="57.61" x="-17.64" y="-28.8" fill="none" rx="0" ry="0" transform="translate(116.22 324)"></rect><path fill="#091627" d="M177.73 335.515h-24.01l-6.16 16.79h-7.6l21.66-58.29h8.21l21.73 58.29h-7.6Zm-2.51-6.62-9.5-25.68-9.5 25.68Z"></path><rect width="51.6" height="58.29" x="-25.8" y="-29.14" fill="none" rx="0" ry="0" transform="translate(166.26 323.66)"></rect><path fill="#091627" d="M218.01 353.595q-11.02 0-19.68-4.1v-6.99q8.74 4.63 19.68 4.63 6.31 0 9.24-2.66 2.92-2.66 2.92-6.99 0-4.1-2.7-6.15-2.69-2.06-7.94-3.58l-5.17-1.44q-4.4-1.29-7.52-2.96-3.12-1.68-5.21-4.83-2.09-3.15-2.09-8.25 0-8.13 4.75-12.38 4.75-4.26 13.49-4.26 5.1 0 8.97.95 3.88.95 8.06 2.85v6.84q-7.75-4.18-17.03-4.18-5.62 0-8.2 2.62-2.59 2.62-2.59 7.18.08 4.18 2.55 6.16 2.47 1.98 7.71 3.5l5.25 1.44q4.63 1.29 7.86 3 3.23 1.71 5.25 4.94 2.01 3.23 2.01 8.4-.08 7.52-5.28 11.89-5.21 4.37-14.33 4.37"></path><rect width="39.29" height="59.96" x="-19.64" y="-29.98" fill="none" rx="0" ry="0" transform="translate(218.47 324.12)"></rect><ellipse fill="#091627" rx="9.18" ry="1.6" transform="translate(122.67 215.67)scale(2.6655)"></ellipse><ellipse fill="#091627" rx="7.43" ry="1.6" transform="translate(122.67 225.61)scale(2.6655)"></ellipse><ellipse fill="#091627" rx="5.68" ry="1.6" transform="translate(122.67 235.53)scale(2.6655)"></ellipse><path fill="#091627" d="M122.667 56.49c-34.886 0-63.263 28.501-63.263 63.537 0 17.595 12.379 35.147 25.056 51.617 4.057 5.275 4.622 10.193 5.17 14.954 1.355 11.792 4.258 18.949 33.037 18.949 28.787 0 31.687-7.16 33.042-18.95.546-4.76 1.111-9.68 5.168-14.953 12.682-16.473 25.061-34.028 25.061-51.617.003-35.033-28.382-63.538-63.271-63.538m32.676 110.895c-5.243 6.813-5.981 13.247-6.575 18.416-.944 8.23-1.466 12.762-26.101 12.762-24.627 0-25.149-4.531-26.095-12.762-.595-5.169-1.333-11.606-6.576-18.416-11.944-15.519-23.606-31.957-23.606-47.358 0-31.181 25.248-56.552 56.277-56.552 31.037 0 56.287 25.37 56.287 56.552 0 15.4-11.664 31.84-23.61 47.358m83.777-47.529h-27.948a3.494 3.494 0 0 0 0 6.989h27.948a3.494 3.494 0 0 0 0-6.989M6.214 126.842h27.948a3.494 3.494 0 0 0 0-6.989H6.214a3.497 3.497 0 0 0 0 6.99m220.33-63.47a3.492 3.492 0 0 0-4.771-1.277l-24.205 13.978a3.493 3.493 0 1 0 3.497 6.048l24.202-13.978a3.492 3.492 0 0 0 1.277-4.772M18.79 183.318a3.486 3.486 0 0 0 4.771 1.277l24.205-13.973a3.493 3.493 0 1 0-3.497-6.048l-24.202 13.973a3.492 3.492 0 0 0-1.277 4.771M166.922 50.196c1.205 0 2.38-.626 3.028-1.746l13.968-24.205a3.492 3.492 0 0 0-6.048-3.495L163.9 44.956a3.497 3.497 0 0 0 3.022 5.24M122.67 38.337a3.492 3.492 0 0 0 3.494-3.465l.23-27.948a3.492 3.492 0 0 0-3.466-3.52h-.03a3.492 3.492 0 0 0-3.494 3.464l-.229 27.943a3.492 3.492 0 0 0 3.495 3.526M78.414 50.191a3.486 3.486 0 0 0 3.02-5.24L67.46 20.75a3.492 3.492 0 1 0-6.048 3.494l13.975 24.2a3.492 3.492 0 0 0 3.028 1.746m-29.37 30.65a3.497 3.497 0 0 0-1.278-4.774L23.561 62.095a3.497 3.497 0 0 0-4.771 1.276 3.497 3.497 0 0 0 1.277 4.772l24.205 13.975a3.492 3.492 0 0 0 4.771-1.277m147.241 85.014a3.492 3.492 0 0 0 1.277 4.77l24.208 13.973a3.486 3.486 0 0 0 4.772-1.276 3.492 3.492 0 0 0-1.277-4.772l-24.208-13.972a3.486 3.486 0 0 0-4.772 1.277"></path><path fill="#091627" d="M148.925 116.89a8.135 8.135 0 0 0-5.014.002 7.082 7.082 0 0 0-2.236 1.229c-.083.066-.144.15-.222.216a5.587 5.587 0 0 0-1.708-2.386c-2.54-2.114-6.981-2.1-9.5-.003a5.Auth::id()5 5.Auth::id()5 0 0 0-1.13 1.27 6.357 6.357 0 0 0-1.344-1.57c-2.742-2.256-7.466-2.258-10.203.002-.56.461-.989.997-1.34 1.565a5.837 5.837 0 0 0-1.128-1.264c-2.535-2.106-6.97-2.108-9.498-.003a5.563 5.563 0 0 0-1.713 2.389c-.075-.067-.136-.147-.214-.21a7.037 7.037 0 0 0-2.252-1.238 8.13 8.13 0 0 0-5.011.003 7.176 7.176 0 0 0-2.245 1.232.874.874 0 0 0-.12 1.231l.02.01c.013.035-.009.073.01.107.168.325 17.056 32.631 17.056 42.158v17.032a.873.873 0 1 0 1.746 0V161.63c0-9.42-14.823-38.285-17.006-42.483.352-.216.683-.458 1.088-.597a6.355 6.355 0 0 1 3.908-.003 5.399 5.399 0 0 1 1.697.93c.448.366.797.79 1.04 1.264a.874.874 0 0 0 1.175.381c.312-.162.419-.485.408-.813.024-.08.094-.138.094-.226 0-1.045.503-2.031 1.426-2.786 1.91-1.588 5.357-1.591 7.274.006.86.706 1.343 1.623 1.397 2.596 0 .056-.02.109-.02.168 0 .258.12.477.297.634a.872.872 0 0 0 1.49-.616c0-.061-.019-.122-.022-.184.054-1.082.584-2.108 1.541-2.897 2.116-1.743 5.864-1.743 7.983 0 .96.792 1.498 1.823 1.546 2.908-.002.059-.021.115-.021.173a.872.872 0 0 0 1.49.616.866.866 0 0 0 .293-.634c0-.054-.016-.102-.019-.155.056-.98.536-1.903 1.405-2.612 1.882-1.573 5.366-1.591 7.274.005.917.75 1.421 1.735 1.421 2.78 0 .086.067.142.088.219-.013.33.093.656.405.818a.869.869 0 0 0 1.176-.376c.245-.474.6-.898 1.055-1.271a5.319 5.319 0 0 1 1.685-.922 6.355 6.355 0 0 1 3.907-.003c.4.139.77.328 1.117.538-2.06 3.961-17.038 33.074-17.038 42.544v17.033a.873.873 0 1 0 1.746 0v-17.033c0-9.523 16.889-41.832 17.057-42.157.018-.035-.003-.067.01-.104.006-.008.02-.005.027-.013a.872.872 0 0 0-.117-1.23 6.778 6.778 0 0 0-2.231-1.239"></path></svg></svg>
